<svg width="32" height="32" viewBox="0 0 32 32" xmlns="http://www.w3.org/2000/svg"><title>Blendle</title><g fill="none" fill-rule="evenodd"><path d="M31.58 15.97c-.05 5.057-1.19 9.337-3.9 12.022-2.663 2.746-6.888 3.897-11.89 3.947-5-.05-9.226-1.202-11.888-3.948C1.19 25.307.05 21.027 0 15.97c.05-5.058 1.19-9.338 3.902-12.023C6.564 1.2 10.79.05 15.79 0c5.002.05 9.227 1.2 11.89 3.947 2.7 2.685 3.85 6.965 3.9 12.023z" fill="#FF6255"/><g fill="#FFF"><path d="M17.142 15.97c-2.5-2.706-4.94-5.33-7.39-7.965-.9.707-1.11.878-1.958 1.534 0 0 2.168 3.634 3.267 5.37.264.424.425.747.455 1.06-.02.313-.18.636-.454 1.06-1.088 1.736-3.266 5.37-3.266 5.37.837.656 1.05.828 1.957 1.534 2.45-2.634 4.89-5.26 7.392-7.964"/><path d="M25.823 15.97c-2.682-2.897-4.73-5.098-7.39-7.965-.898.707-1.11.878-1.957 1.534 0 0 2.168 3.634 3.267 5.37.262.424.424.747.454 1.06-.02.313-.182.636-.454 1.06-1.09 1.736-3.267 5.37-3.267 5.37.837.656 1.05.828 1.956 1.534 2.44-2.634 4.88-5.26 7.39-7.964"/></g></g></svg>
